<mxfile host="app.diagrams.net" modified="2024-02-03T08:14:39.842Z" agent="Mozilla/5.0 (Macintosh; Intel Mac OS X 10_15_7) AppleWebKit/537.36 (KHTML, like Gecko) Chrome/118.0.0.0 Safari/537.36 Edg/118.0.2088.76" version="23.1.1" etag="0AalFgdznLhszqvtZWyp" type="github">
  <diagram name="Page-1" id="RUsCws0iRUYAdwNMDNRL">
    <mxGraphModel>
      <root>
        <mxCell id="0" />
        <mxCell id="1" parent="0" />
      </root>
    </mxGraphModel>
  </diagram>
</mxfile>
